<?xml version="1.0" encoding="utf-8"?>
<!-- Generator: Adobe Illustrator 23.0.1, SVG Export Plug-In . SVG Version: 6.00 Build 0)  -->
<svg version="1.1" baseProfile="tiny" xmlns="http://www.w3.org/2000/svg" xmlns:xlink="http://www.w3.org/1999/xlink" x="0px"
	 y="0px" viewBox="0 0 1224 792" xml:space="preserve">
<g id="Layer_1">
</g>
<g id="TM_x5F_myriad_pro_x5F_semibold_x5F_18pt">
	<rect display="none" fill="#00B6C9" width="1224" height="792"/>
	<g>
		<path fill="#FFFFFF" d="M396.937,478.991l-4.969-33.39c-1.042-6.643-1.661-11.826-2.175-16.692h-0.215
			c-0.926,4.462-2.07,9.323-3.84,14.927l-11.099,35.155h-13.366l-10.679-32.458c-1.871-5.701-3.626-12.036-4.46-17.624h-0.215
			c-0.407,6.212-1.141,11.713-1.965,17.833l-3.945,32.249h-13.691l10.785-69.998h15.776l11.711,35.984
			c1.663,4.979,2.914,9.749,3.83,14.727h0.22c1.034-5.394,2.18-9.334,3.938-14.518l12.025-36.193h15.656l10.884,69.998H396.937"/>
		<path fill="#FFFFFF" d="M456.821,452.96c0,10.479-4.977,15.761-11.511,15.761c-7.66,0-11.503-5.398-11.503-15.971
			c0-10.572,5.803-15.137,11.724-15.137C453.295,437.613,456.821,443.006,456.821,452.96 M470.514,452.233
			c0-17.736-9.444-25.816-24.048-25.816c-15.656,0-26.356,11.605-26.356,27.684c0,18.355,9.436,25.924,24.071,25.924
			C459.63,480.024,470.514,468.418,470.514,452.233"/>
		<path fill="#FFFFFF" d="M575.651,446.328h-18.967c0.732-6.223,4.562-10.271,10.071-10.271
			C572.351,436.057,575.867,439.895,575.651,446.328 M588.841,449.336c0-12.757-6.654-23.022-21.676-23.022
			c-15.464,0-24.164,11.616-24.164,27.377c0,18.146,9.124,26.333,25.489,26.333c6.43,0,12.975-1.141,18.476-3.326l-1.241-10.26
			c-4.47,2.078-9.953,3.214-15.049,3.214c-9.521,0-14.3-4.667-14.195-14.303h31.937
			C588.736,453.169,588.841,451.091,588.841,449.336"/>
		<path fill="#FFFFFF" d="M599.71,436.671c-0.834-1.218-1.323-2.702-1.323-4.293c0-1.571,0.489-3.035,1.3-4.253
			c6.274-0.701,13.678-0.972,20.174-0.783c0,2.702-0.302,6.847-0.936,10.48h0.205c2.487-6.535,7.476-12.24,16.39-11.514
			l-0.629,13.069c-9.528-1.976-14.308,4.252-14.308,18.555v21.058h-13.167v-41.378C605.285,437.254,602.376,436.902,599.71,436.671"
			/>
		<path fill="#FFFFFF" d="M667.876,412.733c0-4.467-3.735-7.988-8.3-7.988c-4.452,0-8.183,3.628-8.183,7.988
			c0,4.457,3.73,8.085,8.183,8.085C664.141,420.818,667.876,417.19,667.876,412.733"/>
		<path fill="#FFFFFF" d="M692.142,480.024c-3.735,0-7.461-0.414-10.776-0.936l0.316-10.879c3.214,0.824,7.144,1.556,11.084,1.556
			c5.092,0,8.412-2.078,8.412-5.501c0-9.134-20.857-3.93-20.857-21.461c0-9.027,7.359-16.488,21.892-16.488
			c2.999,0,6.314,0.415,9.426,0.932l-0.404,10.475c-2.901-0.834-6.33-1.346-9.544-1.346c-5.189,0-7.681,2.072-7.681,5.286
			c0,8.397,21.155,4.667,21.155,21.359C715.164,473.182,706.239,480.024,692.142,480.024"/>
		<path fill="#FFFFFF" d="M497.891,427.343c0,2.492-0.21,6.539-0.729,9.231l0.11,0.102c3.103-6.109,9.124-10.367,17.529-10.367
			c11.616,0,15.331,7.466,15.331,16.493v36.184H516.96v-32.97c0-5.393-1.448-8.612-6.315-8.612c-6.739,0-12.025,7.676-12.025,16.692
			v24.89h-13.169v-41.367c-2.131-0.364-5.025-0.716-7.714-0.947c-0.832-1.218-1.315-2.707-1.315-4.293
			c0-1.571,0.484-3.035,1.289-4.253C483.99,427.419,491.395,427.159,497.891,427.343"/>
		<path fill="#FFFFFF" d="M666.223,427.343c-6.734-0.184-14.4,0.077-20.919,0.783c-0.804,1.218-1.264,2.682-1.264,4.253
			c0,1.586,0.46,3.075,1.29,4.293c2.681,0.23,5.582,0.583,7.706,0.947v41.367h13.187V427.343"/>
	</g>
	<path fill="#FFFFFF" d="M850.689,327.385c-3.654-2.953-7.513-5.706-11.985-7.399c-4.748-1.807-9.63-3.306-14.67-4.094
		c-5.194-0.798-10.567-0.988-15.956-0.486c-5.602,0.537-11.283,1.822-16.871,3.971c-4.478,1.73-8.802,3.874-12.926,6.407
		c-4.329,2.655-8.418,5.736-12.23,9.252c-4.007,3.674-7.675,7.824-10.991,12.404c-3.459,4.81-6.469,10.101-8.939,15.817
		c-2.605,5.998-4.529,12.266-5.732,18.708c-1.243,6.729-1.673,13.586-1.269,20.469c0.415,7.108,1.735,14.174,3.977,21.037
		c2.292,7.031,5.536,13.775,9.707,20.069c10.787,16.314,25.36,28.186,41.761,35.155c15.803,6.734,32.393,8.515,48.133,5.874
		c14.477-2.405,27.674-8.484,38.717-17.439c9.916-8.049,17.904-18.268,23.554-30.115c0.343-0.727,0.548-1.556,0.64-2.42
		c0.082-0.86,0.066-1.77-0.082-2.661c-0.123-0.9-0.368-1.781-0.711-2.615c-0.363-0.823-0.804-1.596-1.325-2.251
		c-0.553-0.666-1.136-1.157-1.729-1.48c-0.594-0.337-1.208-0.501-1.776-0.501c-0.604,0.005-1.171,0.169-1.678,0.512
		c-0.512,0.343-0.973,0.85-1.356,1.53c-5.24,9.625-12.373,17.701-21.022,23.815c-9.446,6.704-20.529,10.946-32.469,12.235
		c-12.777,1.382-26.092-0.655-38.741-6.422c-13.023-5.936-24.675-15.515-33.579-28.431c-3.336-4.826-5.997-9.994-7.973-15.377
		c-1.944-5.291-3.214-10.746-3.817-16.267c-0.568-5.373-0.522-10.767,0.144-16.089c0.654-5.147,1.878-10.193,3.658-15.064
		c1.121-3.107,2.441-6.074,3.966-8.889c1.448-2.743,3.091-5.348,4.861-7.799c1.74-2.39,3.613-4.626,5.619-6.714
		c1.944-2.036,4.001-3.93,6.161-5.664c1.125-0.895,2.256-1.74,3.397-2.544c1.156-0.798,2.328-1.555,3.505-2.282
		c1.172-0.706,2.369-1.376,3.607-2.011c1.183-0.624,2.421-1.213,3.654-1.76c1.387-0.609,2.768-1.141,4.186-1.612
		c1.382-0.466,2.773-0.86,4.166-1.197c1.392-0.328,2.773-0.604,4.176-0.814c1.365-0.194,2.752-0.348,4.113-0.445
		c-1.187,0.414-2.358,0.88-3.479,1.396c-1.187,0.517-2.323,1.09-3.448,1.725c-1.131,0.629-2.252,1.325-3.316,2.083
		c-1.09,0.757-2.164,1.576-3.178,2.461c-0.701,0.604-1.392,1.233-2.057,1.883c-0.671,0.666-1.326,1.356-1.955,2.083
		c-0.64,0.727-1.254,1.474-1.848,2.262c-0.604,0.799-1.177,1.612-1.729,2.467c-4.427,6.811-7.139,14.568-8.075,22.776
		c-1.013,8.72,0,17.772,2.979,26.486c3.075,9.047,8.178,17.476,15.034,24.501c6.898,7.062,15.336,12.455,24.849,15.516
		c5.502,1.775,11.018,2.804,16.406,3.142c5.25,0.333,10.367-0.015,15.238-0.987c4.76-0.937,9.231-2.451,13.448-4.493
		c4.012-1.985,7.783-4.432,11.176-7.322c3.265-2.779,6.11-5.87,8.536-9.206c2.333-3.208,4.272-6.632,5.854-10.234
		c1.489-3.454,2.65-7.072,3.434-10.792c0.793-3.592,1.238-7.297,1.366-11.073c0.297-9.042-0.946-17.742-3.341-25.832
		c-2.268-7.64-5.594-14.936-9.738-21.625c-4.023-6.478-8.914-12.552-14.543-17.966c-5.588-5.409-12.02-10.301-19.281-14.43
		c-0.451-0.276-0.957-0.466-1.402-0.583c-0.477-0.123-0.906-0.159-1.315-0.123c-0.419,0.03-0.752,0.128-1.069,0.322
		c-0.297,0.189-0.537,0.445-0.681,0.777c-0.128,0.338-0.169,0.706-0.097,1.11c0.045,0.395,0.193,0.809,0.439,1.224
		c0.225,0.394,0.543,0.803,0.937,1.166c0.352,0.379,0.813,0.701,1.31,0.993c6.561,3.664,12.379,8.055,17.393,12.936
		c5.056,4.892,9.446,10.378,13.003,16.242c3.658,6.028,6.529,12.578,8.387,19.425c1.965,7.19,2.846,14.871,2.282,22.762
		c-0.22,3.157-0.706,6.228-1.499,9.195c-0.793,3.06-1.889,6.003-3.275,8.791c-1.438,2.881-3.178,5.593-5.24,8.111
		c-2.143,2.6-4.584,4.969-7.393,7.057c-2.886,2.165-6.003,3.966-9.375,5.363c-3.459,1.443-7.144,2.456-10.971,3.019
		c-3.961,0.558-8.044,0.645-12.22,0.215c-4.289-0.435-8.617-1.413-12.947-2.927c-1.725-0.604-3.387-1.305-5.01-2.088
		c-1.632-0.798-3.224-1.689-4.743-2.661c-1.53-0.973-3.009-2.026-4.405-3.157c-1.428-1.137-2.77-2.329-4.049-3.613
		c2.697,1.351,5.445,2.436,8.26,3.244c2.789,0.819,5.619,1.382,8.443,1.684c2.773,0.292,5.557,0.328,8.305,0.123
		c2.697-0.21,5.368-0.655,7.968-1.351c3.868-1.023,7.472-2.436,10.792-4.212c3.198-1.714,6.106-3.735,8.735-6.028
		c2.518-2.221,4.759-4.703,6.683-7.379c1.868-2.61,3.439-5.404,4.703-8.367c1.243-2.86,2.164-5.798,2.783-8.781
		c0.6-2.891,0.9-5.823,0.941-8.76c0.021-2.861-0.189-5.742-0.66-8.628c-0.455-2.805-1.177-5.619-2.098-8.413
		c-2.318-6.841-5.639-13.125-9.702-18.718c-3.971-5.48-8.745-10.449-14.082-14.732c-5.353-4.309-11.392-8.029-17.942-10.935
		c-6.714-3.009-14.112-5.225-22.034-6.387c-10.367-1.509-20.832-1.438-31.098,0.144c-11.252,1.734-22.428,5.327-32.964,10.762
		c-11.733,6.068-22.787,14.476-32.009,25.156c-10.393,11.99-18.447,26.783-22.412,43.818c-0.277,1.177-0.185,2.268,0.193,3.229
		c0.399,0.967,1.075,1.812,2.012,2.481c0.946,0.665,2.123,1.167,3.475,1.448c1.361,0.271,2.891,0.343,4.555,0.159
		c1.616-0.189,3.213-0.599,4.691-1.182c1.454-0.583,2.789-1.33,3.945-2.185c1.146-0.855,2.124-1.816,2.846-2.855
		c0.727-1.008,1.197-2.099,1.371-3.198c2.318-14.026,8.034-26.44,15.874-36.741c7.103-9.339,15.878-16.861,25.483-22.46
		c8.725-5.081,18.171-8.576,27.848-10.434c8.914-1.719,18.114-2.062,27.305-0.952c6.842,0.844,13.264,2.651,19.133,5.178
		c5.736,2.472,11.038,5.67,15.736,9.426c4.656,3.726,8.812,8.08,12.25,12.896c3.479,4.907,6.289,10.388,8.146,16.339
		c0.732,2.329,1.238,4.646,1.556,6.97c0.327,2.354,0.409,4.708,0.302,7.047c-0.117,2.369-0.476,4.733-1.049,7.051
		c-0.614,2.344-1.448,4.662-2.559,6.903c-1.136,2.303-2.497,4.447-4.103,6.427c-1.628,2.032-3.506,3.874-5.588,5.506
		c-2.16,1.684-4.514,3.131-7.103,4.329c-2.641,1.218-5.516,2.18-8.545,2.824c-2.405,0.507-4.872,0.747-7.359,0.717
		c-2.527-0.02-5.065-0.333-7.583-0.906c-2.549-0.583-5.062-1.453-7.481-2.579c-2.456-1.146-4.805-2.564-7.052-4.242
		c-2.21-1.684-4.309-3.577-6.171-5.629c-1.857-2.062-3.49-4.283-4.856-6.622c-1.346-2.328-2.41-4.759-3.126-7.267
		c-0.727-2.472-0.875-6.284-0.794-8.816c0.046-1.454,0.691-4.493,1.11-5.64c0.43-1.131,0.911-2.241,1.434-3.31
		c0.512-1.06,1.064-2.078,1.602-3.024c2.328-4.073,5.389-7.338,8.914-9.799c3.393-2.364,7.194-3.986,11.155-4.871
		c3.843-0.844,7.814-1.044,11.81-0.466c3.664,0.523,7.036,1.684,10.178,3.347c0.532,0.281,1.054,0.512,1.587,0.63
		c0.521,0.107,1.023,0.128,1.494,0.061c0.471-0.072,0.905-0.23,1.279-0.476c0.378-0.235,0.675-0.558,0.885-0.967
		c0.221-0.394,0.333-0.839,0.373-1.31c0-0.466-0.051-0.947-0.204-1.428c-0.148-0.481-0.379-0.952-0.696-1.397
		C851.528,328.168,851.134,327.753,850.689,327.385"/>
	<g>
		<path fill="#FFFFFF" d="M903.754,307.584c-1.224,1.229-2.703,1.844-4.439,1.844c-1.735,0-3.212-0.615-4.43-1.844
			c-1.213-1.224-1.818-2.707-1.818-4.448c0-1.725,0.611-3.198,1.835-4.422c1.218-1.218,2.689-1.827,4.413-1.827
			c1.736,0,3.216,0.609,4.439,1.827s1.835,2.692,1.835,4.422C905.589,304.873,904.978,306.355,903.754,307.584z M895.508,299.329
			c-1.048,1.053-1.571,2.325-1.571,3.816c0,1.502,0.521,2.783,1.562,3.842c1.047,1.059,2.319,1.588,3.815,1.588
			c1.497,0,2.77-0.529,3.816-1.588s1.57-2.339,1.57-3.842c0-1.491-0.523-2.763-1.57-3.816c-1.053-1.058-2.325-1.587-3.816-1.587
			C897.829,297.742,896.561,298.271,895.508,299.329z M899.195,299.679c0.854,0,1.479,0.083,1.878,0.248
			c0.712,0.296,1.067,0.877,1.067,1.743c0,0.615-0.224,1.068-0.672,1.358c-0.237,0.154-0.569,0.265-0.994,0.333
			c0.538,0.085,0.932,0.31,1.181,0.674c0.25,0.364,0.374,0.719,0.374,1.065v0.503c0,0.159,0.006,0.33,0.018,0.512
			c0.011,0.182,0.031,0.301,0.06,0.358l0.043,0.085h-1.136c-0.006-0.023-0.012-0.045-0.018-0.068
			c-0.005-0.022-0.011-0.048-0.017-0.077l-0.025-0.221v-0.544c0-0.794-0.217-1.319-0.649-1.574
			c-0.256-0.147-0.705-0.221-1.349-0.221H898v2.706h-1.212v-6.881H899.195z M900.504,300.764c-0.305-0.171-0.794-0.256-1.468-0.256
			H898V303h1.096c0.514,0,0.899-0.051,1.156-0.154c0.474-0.188,0.711-0.546,0.711-1.075
			C900.963,301.27,900.81,300.934,900.504,300.764z"/>
		<path fill="#FFFFFF" d="M911.849,296.888h1.298l-3.979,12.541h-1.298L911.849,296.888z"/>
		<path fill="#FFFFFF" d="M915.762,296.888h2.434l3.606,10.603l3.58-10.603h2.417v12.541h-1.622v-7.401
			c0-0.256,0.005-0.68,0.017-1.272s0.018-1.226,0.018-1.904l-3.581,10.577h-1.683l-3.615-10.577v0.384
			c0,0.308,0.009,0.775,0.026,1.404c0.017,0.629,0.025,1.091,0.025,1.387v7.401h-1.622V296.888z"/>
		<path fill="#FFFFFF" d="M930.444,296.888h5.013c1.702,0,3.021,0.612,3.959,1.835c0.837,1.104,1.256,2.519,1.256,4.243
			c0,1.332-0.247,2.536-0.741,3.611c-0.871,1.901-2.367,2.851-4.49,2.851h-4.996V296.888z M935.124,307.977
			c0.562,0,1.023-0.06,1.386-0.179c0.646-0.222,1.174-0.649,1.586-1.281c0.328-0.506,0.564-1.155,0.709-1.946
			c0.084-0.472,0.125-0.911,0.125-1.314c0-1.554-0.302-2.76-0.905-3.62s-1.576-1.289-2.917-1.289h-2.947v9.629H935.124z"/>
	</g>
</g>
</svg>
